<svg
  viewBox="0 0 29 28"
  fill="none"
  xmlns="http://www.w3.org/2000/svg"
>
  <path
    d="M0 6.79412C0 3.04183 3.04183 0 6.79412 0H6.93478C10.7648 0 13.8696 3.10481 13.8696 6.93478V13.5882H6.79411C3.04183 13.5882 0 10.5464 0 6.79412V6.79412Z"
    fill="#36C5F0"
  />
  <path
    d="M22.2059 -2.90956e-07C25.9582 -1.30266e-07 29 3.04183 29 6.79412V6.79412C29 10.5464 25.9582 13.5882 22.2059 13.5882L15.1304 13.5882L15.1304 6.93479C15.1304 3.10481 18.2352 -4.60998e-07 22.0652 -2.9698e-07L22.2059 -2.90956e-07Z"
    fill="#2EB67D"
  />
  <path
    d="M29 21.2059C29 24.9582 25.9582 28 22.2059 28L22.0652 28C18.2352 28 15.1304 24.8952 15.1304 21.0652L15.1304 14.4118L22.2059 14.4118C25.9582 14.4118 29 17.4536 29 21.2059V21.2059Z"
    fill="#ECB22E"
  />
  <path
    d="M6.79411 28C3.04183 28 -1.35716e-07 24.9582 -3.03129e-07 21.2059V21.2059C-4.70542e-07 17.4536 3.04183 14.4118 6.79411 14.4118L13.8696 14.4118L13.8696 21.0652C13.8696 24.8952 10.7648 28 6.93478 28L6.79411 28Z"
    fill="#E01E5A"
  />
</svg>
